<svg version="1" xmlns="http://www.w3.org/2000/svg" width="500pt" height="500pt" viewBox="0 0 500.000000 500.000000"><path d="M274.5 73.6c-1.1.3-5.8 1.2-10.5 2-25.4 4.8-53.5 18.2-78.2 37.5-10.2 7.9-12.1 8.9-13.3 6.8-1-1.6-13.4-9.3-21.5-13.4-8.8-4.4-23-9.2-29.6-10-4.5-.6-5.1-.4-7.3 2.1-1.3 1.4-3.9 5.4-5.9 8.8-1.9 3.3-5.2 7.9-7.2 10.1-4.9 5.4-11 14.6-15 22.4-4 8.1-9.6 25.1-11.1 33.8-1.3 8.1-1.4 22.9-.1 29.6l1 4.8-6.7 8.2c-12 14.8-21.7 28-31.8 43.2-16.5 24.8-23.5 37.8-28.8 53.8-3.8 11.4-5 18.8-4.9 29.2.1 11.4.9 13.8 5.2 16.2 15 8.4 46.3 10.8 87.3 6.7l6.6-.6 2.7 4.6c15.8 26.9 60.9 45.6 121.4 50.3 18.6 1.5 81.2.6 84.1-1.2.4-.1 4-.6 8.1-.9 4.1-.4 8.2-.9 9-1.1.8-.2 3.8-.6 6.5-1 4.1-.5 13.5-2.1 23.6-4 51.7-9.9 94.7-29.3 112.2-50.5 9.1-11 14.5-28.6 15.4-50.5.5-12.2-.4-28.1-2.2-38-1.7-9.5-3.8-19.2-5.5-25l-1.9-6.7 4-5.5c5-6.7 11.4-19.9 13.3-27.6 5.5-21.5 3.2-43.1-7.1-67.7-3.9-9.1-12.2-22.4-17.5-28-1.8-1.9-3.8-4.3-4.4-5.5-3.3-6.4-8.8-14.3-10.9-15.7-2.5-1.8-20.3 3.2-33 9.2-4.4 2.1-11.5 6.2-15.7 9-4.8 3.2-8.2 4.9-9 4.4-.7-.4-3.3-2.4-5.8-4.5-18.5-15.3-45.1-28.1-69.5-33.5-7.6-1.6-40.6-2.9-46-1.8zm-183.8 167.7c1.3 1.7 3 4.1 3.8 5.3 1.3 1.8 1.3 2.9-.4 11-6.5 29.8-6.1 59.6 1.2 85.2 1.1 4 1.7 7.5 1.4 7.8-.9 1-38.2 1-45.7.1-13.6-1.7-24.4-5.5-30.4-10.7-5.6-5-7-8.4-7-17 0-19.9 14.5-41.7 42.8-64.5 6.5-5.2 29.6-20.5 31-20.5.6 0 2.1 1.5 3.3 3.3z"/></svg>